<mxfile host="app.diagrams.net" modified="2023-09-07T03:06:57.402Z" agent="Mozilla/5.0 (Windows NT 10.0; Win64; x64) AppleWebKit/537.36 (KHTML, like Gecko) Chrome/116.0.0.0 Safari/537.36" version="21.7.2" etag="nWUxqqLlheU-oUhX5iFd" type="github">
  <diagram name="Halaman-1" id="hcsw0pyjK6fC1mn5Zb7B">
    <mxGraphModel>
      <root>
        <mxCell id="0" />
        <mxCell id="1" parent="0" />
      </root>
    </mxGraphModel>
  </diagram>
</mxfile>
